<?xml version="1.0" standalone="no"?>
<!DOCTYPE svg PUBLIC "-//W3C//DTD SVG 20010904//EN"
"http://www.w3.org/TR/2001/REC-SVG-20010904/DTD/svg10.dtd">

<svg version="1.0" xmlns="http://www.w3.org/2000/svg"
width="1280.000000pt" height="1234.000000pt" viewBox="0 0 1280.000000 1234.000000"
preserveAspectRatio="xMidYMid meet">
	<g transform="translate(0.000000,1234.000000) scale(0.100000,-0.100000)" 
	fill='white' stroke="none">
		<path d="M8209 12312 c-113 -73 -331 -373 -719 -997 -300 -481 -363 -628 -363
		-850 0 -132 24 -239 108 -464 90 -243 113 -284 178 -318 66 -34 189 5 414 132
		318 181 402 263 467 455 13 41 32 116 40 165 36 211 41 339 41 1080 0 699 -1
		731 -19 765 -37 68 -76 76 -147 32z"/>
		<path d="M4935 11998 c-62 -34 -94 -88 -170 -288 -109 -286 -141 -410 -133
		-520 9 -127 76 -221 268 -381 206 -171 333 -239 419 -224 125 21 317 263 362
		455 16 71 16 200 0 270 -21 86 -82 208 -144 285 -59 74 -139 145 -315 282
		-157 122 -230 153 -287 121z"/>
		<path d="M6322 11055 c-84 -39 -154 -99 -357 -306 -296 -303 -364 -358 -484
		-393 -111 -33 -230 -20 -631 64 -349 74 -455 91 -555 93 -182 1 -237 -53 -291
		-292 -50 -220 -25 -296 123 -370 71 -35 232 -78 678 -177 236 -52 431 -97 433
		-99 2 -2 48 -217 102 -477 54 -261 114 -536 134 -612 111 -421 251 -714 425
		-887 113 -112 246 -171 311 -137 144 76 155 563 25 1143 -31 140 -74 293 -235
		843 l-62 213 219 225 c519 537 631 664 669 752 24 56 14 133 -23 185 -41 57
		-216 204 -278 233 -67 32 -134 31 -203 -1z"/>
		<path d="M1829 10897 c-9 -20 -7 -37 11 -93 60 -180 480 -959 783 -1454 225
		-367 348 -487 548 -535 79 -18 445 -39 554 -31 106 8 148 21 190 57 48 43 59
		89 51 229 -11 208 -51 406 -119 580 -37 97 -46 110 -111 175 -232 228 -1655
		1065 -1857 1092 -34 5 -40 3 -50 -20z"/>
		<path d="M10400 10340 c-467 -72 -573 -140 -664 -427 -42 -134 -68 -280 -69
		-384 -1 -85 2 -102 26 -151 31 -63 78 -101 154 -124 129 -39 523 6 728 83 98
		37 166 105 193 195 30 96 44 269 40 493 -3 185 -5 204 -26 247 -44 90 -136
		106 -382 68z"/>
		<path d="M8795 10286 c-106 -30 -140 -49 -175 -97 -80 -110 -70 -252 66 -970
		l65 -346 -63 -60 c-366 -347 -781 -708 -933 -810 -33 -22 -78 -60 -100 -84
		-125 -136 -367 -627 -382 -774 -8 -79 5 -88 121 -93 204 -9 454 86 755 289
		239 160 408 310 850 752 l314 315 96 -35 c311 -114 714 -256 826 -293 101 -33
		150 -44 220 -47 82 -5 93 -3 124 18 45 31 74 89 107 214 35 134 38 253 7 311
		-58 108 -165 167 -593 326 -468 174 -573 235 -644 375 -37 74 -61 169 -105
		414 -71 397 -132 533 -266 595 -67 32 -178 32 -290 0z"/>
		<path d="M6800 10053 c-220 -16 -329 -115 -330 -300 0 -122 23 -219 110 -464
		93 -261 115 -387 115 -664 0 -165 -4 -219 -22 -310 -33 -163 -43 -264 -43
		-415 0 -151 15 -240 54 -323 65 -137 130 -150 272 -55 104 69 188 150 257 246
		73 101 149 247 177 337 50 161 102 255 220 400 88 107 263 273 380 360 338
		253 410 333 410 453 0 63 -25 129 -97 250 -95 162 -140 198 -237 190 -69 -6
		-157 -48 -454 -217 -126 -72 -234 -131 -239 -131 -6 0 -45 75 -88 168 -99 215
		-143 290 -213 361 -83 84 -171 121 -272 114z"/>
		<path d="M4470 9498 c-36 -4 -101 -19 -145 -32 -203 -63 -255 -153 -241 -416
		3 -69 11 -156 16 -194 6 -39 11 -115 12 -169 3 -162 3 -162 -396 -82 -358 72
		-446 64 -501 -49 -43 -89 -57 -261 -29 -355 40 -135 140 -186 567 -290 419
		-102 716 -244 942 -451 235 -216 462 -348 645 -375 165 -25 250 12 266 114 19
		120 -70 315 -322 711 -197 311 -328 591 -396 849 -23 91 -32 151 -39 275 -12
		219 -36 310 -103 384 -63 70 -149 94 -276 80z"/>
		<path d="M2393 8825 c-111 -31 -211 -76 -244 -110 -44 -44 -57 -84 -58 -172
		-2 -122 31 -262 205 -892 l78 -283 -35 -32 c-19 -17 -154 -128 -299 -246 -476
		-387 -592 -514 -594 -654 -1 -70 37 -132 119 -199 79 -63 138 -90 209 -95 82
		-6 154 12 271 67 116 55 196 105 389 244 308 221 412 273 561 284 132 9 248
		-13 762 -146 219 -58 473 -110 683 -142 203 -31 424 -31 534 -1 442 122 176
		477 -543 727 -207 72 -335 105 -965 248 l-320 72 -39 120 c-317 983 -371 1116
		-478 1191 -35 24 -53 29 -113 31 -39 2 -94 -4 -123 -12z"/>
		<path d="M1214 8195 c-51 -14 -188 -56 -305 -94 -118 -39 -260 -84 -317 -102
		-73 -24 -101 -37 -97 -47 6 -15 227 -334 321 -463 86 -117 206 -229 285 -267
		142 -68 277 -64 524 15 229 73 484 183 521 224 17 18 17 21 0 55 -36 78 -358
		451 -500 581 -100 91 -153 116 -256 120 -66 2 -105 -3 -176 -22z"/>
		<path d="M9609 8026 c-19 -7 -46 -20 -60 -29 -47 -33 -142 -134 -222 -236
		-215 -274 -282 -353 -375 -443 -96 -94 -201 -170 -270 -198 -21 -8 -52 -11
		-85 -7 -106 12 -256 -28 -443 -118 -288 -139 -491 -328 -470 -439 8 -40 63
		-94 133 -129 155 -79 454 -130 621 -107 89 12 131 27 187 64 20 14 57 28 83
		32 111 17 356 -34 682 -141 404 -132 697 -199 791 -181 75 14 177 122 209 220
		8 24 11 70 8 120 -3 68 -10 91 -37 143 -61 115 -160 190 -337 257 -100 38
		-174 91 -202 146 -47 90 -8 218 126 416 92 138 106 169 106 244 0 111 -68 211
		-217 322 -103 76 -154 91 -228 64z"/>
		<path d="M10902 7870 c-214 -21 -345 -76 -477 -202 -145 -137 -347 -399 -392
		-508 -70 -169 25 -259 412 -389 182 -61 267 -76 400 -67 207 12 426 91 880
		319 344 172 696 367 861 478 87 58 180 142 199 180 32 61 3 117 -71 139 -57
		16 -275 28 -769 40 -706 17 -944 19 -1043 10z"/>
		<path d="M6198 7145 c-92 -23 -165 -67 -288 -171 -231 -196 -352 -335 -401
		-462 -28 -73 -32 -223 -7 -327 30 -122 108 -336 161 -439 57 -112 145 -211
		231 -260 110 -63 351 -127 531 -141 155 -12 318 27 442 105 76 48 239 197 304
		277 73 91 124 196 140 288 25 147 -18 468 -81 604 -61 130 -185 270 -319 360
		-89 61 -231 126 -331 152 -108 28 -298 35 -382 14z"/>
		<path d="M10977 6410 c-85 -22 -180 -85 -358 -237 -90 -78 -486 -441 -605
		-555 l-42 -40 -498 155 c-569 178 -740 227 -909 262 -300 61 -474 59 -646 -11
		-174 -71 -249 -126 -249 -183 0 -37 42 -94 121 -162 113 -98 161 -129 314
		-204 244 -120 491 -212 859 -321 332 -97 548 -174 689 -245 104 -53 114 -63
		127 -127 61 -309 309 -927 418 -1041 37 -39 42 -41 98 -41 86 0 239 35 311 70
		82 40 114 91 121 190 8 123 -23 276 -169 833 -39 147 -69 274 -67 282 2 7 147
		143 323 301 554 498 611 569 571 706 -18 61 -114 215 -177 283 -70 76 -149
		105 -232 85z"/>
		<path d="M2667 6386 c-66 -25 -105 -62 -141 -139 -43 -90 -60 -167 -54 -243 6
		-82 31 -128 110 -206 62 -62 85 -76 282 -173 241 -118 276 -142 276 -187 0
		-40 -18 -69 -181 -284 -175 -232 -193 -265 -194 -364 0 -69 3 -79 33 -122 43
		-62 184 -185 247 -214 85 -40 166 -29 260 36 42 30 211 198 290 290 148 172
		307 315 482 434 157 106 245 147 466 220 192 63 316 118 415 183 81 54 226
		283 226 358 0 44 -31 81 -91 110 -88 42 -166 56 -353 62 -206 7 -325 -5 -525
		-50 -124 -27 -158 -31 -295 -31 -219 0 -297 21 -675 184 -104 45 -230 95 -280
		112 -109 35 -239 46 -298 24z"/>
		<path d="M1820 5773 c-160 -54 -357 -144 -615 -280 -524 -278 -1042 -594
		-1160 -708 -54 -53 -60 -87 -17 -103 69 -26 878 -83 1434 -101 539 -17 741 20
		944 172 75 57 326 313 417 427 123 152 131 192 52 265 -158 148 -703 337 -964
		334 -42 0 -83 -3 -91 -6z"/>
		<path d="M5220 5350 c-154 -24 -349 -125 -585 -303 -121 -92 -305 -249 -553
		-471 -122 -110 -257 -226 -300 -258 -142 -108 -249 -148 -392 -148 -104 0
		-153 8 -450 70 -435 92 -532 103 -626 75 -93 -27 -137 -98 -179 -283 -52 -225
		-22 -306 136 -375 64 -29 263 -83 484 -132 578 -129 601 -152 745 -741 91
		-369 141 -511 205 -582 70 -78 153 -89 330 -42 247 66 295 107 295 255 0 97
		-26 214 -156 713 -58 222 -104 409 -102 417 2 7 152 145 333 306 453 403 821
		768 946 939 45 62 142 233 176 310 36 82 41 126 19 168 -32 63 -192 103 -326
		82z"/>
		<path d="M7350 5282 c-54 -27 -67 -76 -51 -193 19 -134 45 -221 101 -334 66
		-133 164 -261 266 -347 126 -107 199 -217 257 -388 37 -109 54 -202 77 -412
		33 -309 85 -466 183 -554 64 -58 131 -78 258 -79 87 0 101 3 155 30 63 33 113
		93 135 163 20 65 22 257 5 387 -21 154 -21 224 0 254 15 21 22 23 83 18 36 -3
		120 -13 186 -22 159 -22 398 -17 465 10 96 39 173 127 207 236 11 35 17 88 17
		154 1 85 -3 106 -22 143 -50 95 -152 134 -497 192 -340 56 -484 98 -665 191
		-111 57 -165 95 -286 203 -109 97 -237 183 -369 246 -119 58 -199 84 -319 105
		-114 19 -143 19 -186 -3z"/>
		<path d="M11385 5255 c-74 -14 -670 -209 -688 -225 -8 -7 319 -486 415 -607
		62 -78 110 -121 167 -146 91 -40 290 -9 641 100 399 123 435 208 223 527 -117
		175 -253 290 -403 337 -86 28 -247 34 -355 14z"/>
		<path d="M5977 5035 c-53 -18 -201 -138 -263 -214 -113 -135 -211 -331 -268
		-531 -51 -181 -144 -330 -294 -471 -98 -92 -206 -172 -462 -341 -298 -196
		-356 -266 -315 -375 20 -53 143 -203 218 -266 160 -136 218 -124 674 136 l202
		115 100 -193 c55 -107 117 -220 139 -253 51 -75 146 -162 208 -192 100 -47
		255 -34 355 31 149 95 162 298 38 595 -100 241 -119 295 -139 389 -40 192 -38
		393 5 635 45 250 38 530 -20 732 -53 183 -95 232 -178 203z"/>
		<path d="M6693 5026 c-57 -48 -130 -214 -177 -404 -38 -153 -50 -238 -51 -362
		0 -126 11 -162 61 -194 54 -36 155 -298 234 -611 53 -209 160 -660 160 -675 0
		-7 -96 -105 -212 -218 -488 -471 -594 -597 -629 -748 -17 -73 2 -145 62 -246
		112 -186 195 -225 339 -157 111 52 199 123 528 423 106 97 220 196 252 221 72
		55 168 102 228 111 76 11 200 -14 399 -83 609 -210 625 -215 723 -217 116 -2
		161 46 206 220 95 377 -104 574 -755 743 -104 28 -211 61 -238 74 -73 38 -129
		101 -178 202 -53 108 -86 221 -161 545 -31 135 -76 309 -100 388 -172 556
		-424 955 -635 1007 -19 5 -34 0 -56 -19z"/>
		<path d="M8860 3753 c0 -16 72 -631 81 -683 47 -307 161 -453 545 -703 270
		-175 872 -525 1161 -673 199 -103 228 -110 270 -68 23 23 25 31 20 83 -7 85
		-72 239 -232 556 -340 672 -542 1005 -687 1128 -156 132 -233 160 -808 287
		-151 34 -292 65 -312 69 -21 5 -38 7 -38 4z"/>
		<path d="M2855 3234 c-72 -11 -290 -59 -402 -90 -295 -80 -378 -160 -408 -392
		-8 -59 -17 -232 -21 -384 l-7 -277 28 -11 c31 -12 62 -10 285 21 304 42 490
		88 583 142 103 61 172 175 226 373 101 376 92 531 -32 596 -33 17 -62 22 -132
		24 -49 1 -103 0 -120 -2z"/>
		<path d="M5200 2777 c-195 -85 -397 -237 -520 -392 -58 -73 -73 -106 -94 -201
		-71 -320 -123 -1208 -105 -1776 12 -396 48 -479 151 -356 89 107 384 543 695
		1028 295 460 366 585 411 717 61 177 38 276 -163 721 -132 290 -199 336 -375
		259z"/>
		<path d="M7455 1854 c-41 -10 -101 -62 -142 -121 -47 -71 -93 -184 -129 -319
		-93 -348 -20 -515 327 -753 225 -155 319 -187 414 -141 80 39 139 142 221 390
		70 213 76 339 20 455 -67 136 -329 374 -504 457 -62 30 -156 44 -207 32z"/>
	</g>
</svg>
